<?xml version="1.0" standalone="no"?><!DOCTYPE svg PUBLIC "-//W3C//DTD SVG 1.1//EN" "http://www.w3.org/Graphics/SVG/1.1/DTD/svg11.dtd"><svg t="1691997908891" class="icon" viewBox="0 0 1024 1024" version="1.1" xmlns="http://www.w3.org/2000/svg" p-id="15631" xmlns:xlink="http://www.w3.org/1999/xlink" width="200" height="200"><path d="M976.014027 0.007964c13.311896 0 24.661142 4.664853 33.990846 13.994558 9.329705 9.329705 13.994558 20.67895 13.994558 33.990847v672.023218c0 13.311896-4.664853 24.661142-13.994558 33.990846a46.278751 46.278751 0 0 1-33.990846 13.994558h-16.014098v-39.992578c0-16.014098-7.992827-24.006924-24.006924-24.006924h-79.985156c-16.014098 0-24.006924 7.992827-24.006925 24.006924V768.001991H192.005902v-39.992578c0-16.014098-7.992827-24.006924-24.006924-24.006924H88.013822c-16.014098 0-24.006924 7.992827-24.006924 24.006924V768.001991h-15.985654c-13.368785 0-24.689586-4.664853-34.019291-13.994558A46.278751 46.278751 0 0 1 0.007396 720.016587v-671.994774c0-13.368785 4.664853-24.689586 13.994557-34.019291A46.278751 46.278751 0 0 1 48.021244 0.007964h15.985654v39.992578c0 16.014098 7.992827 24.006924 24.006924 24.006925h79.985156c16.014098 0 24.006924-7.992827 24.006924-24.006925V0.007964h639.995022v39.992578c0 16.014098 7.992827 24.006924 24.006925 24.006925h79.985156c16.014098 0 24.006924-7.992827 24.006924-24.006925V0.007964zM192.005902 615.996062v-79.985155c0-16.014098-7.992827-24.006924-24.006924-24.006925H88.013822c-16.014098 0-24.006924 7.992827-24.006924 24.006925v79.985155c0 16.014098 7.992827 24.006924 24.006924 24.006925h79.985156c16.014098 0 24.006924-7.992827 24.006924-24.006925z m0-191.998506v-79.985156c0-16.014098-7.992827-24.006924-24.006924-24.006924H88.013822c-16.014098 0-24.006924 7.992827-24.006924 24.006924v79.985156c0 16.014098 7.992827 24.006924 24.006924 24.006924h79.985156c16.014098 0 24.006924-7.992827 24.006924-24.006924z m0-191.998507v-79.985156c0-16.014098-7.992827-24.006924-24.006924-24.006924H88.013822c-16.014098 0-24.006924 7.992827-24.006924 24.006924v79.985156c0 16.014098 7.992827 24.006924 24.006924 24.006924h79.985156c16.014098 0 24.006924-7.992827 24.006924-24.006924zM768.001422 679.995564v-239.983911c0-16.014098-7.992827-24.006924-24.006924-24.006924H280.012329c-16.014098 0-24.006924 7.992827-24.006925 24.006924v239.983911c0 16.014098 7.992827 24.006924 24.006925 24.006925h463.982169c16.014098 0 24.006924-7.992827 24.006924-24.006925z m0-351.997262v-239.983911c0-16.014098-7.992827-24.006924-24.006924-24.006924H280.012329c-16.014098 0-24.006924 7.992827-24.006925 24.006924v239.983911c0 16.014098 7.992827 24.006924 24.006925 24.006925h463.982169c16.014098 0 24.006924-7.992827 24.006924-24.006925z m191.998507 287.99776v-79.985155c0-16.014098-7.992827-24.006924-24.006924-24.006925h-79.985156c-16.014098 0-24.006924 7.992827-24.006925 24.006925v79.985155c0 16.014098 7.992827 24.006924 24.006925 24.006925h79.985156c16.014098 0 24.006924-7.992827 24.006924-24.006925z m0-191.998506v-79.985156c0-16.014098-7.992827-24.006924-24.006924-24.006924h-79.985156c-16.014098 0-24.006924 7.992827-24.006925 24.006924v79.985156c0 16.014098 7.992827 24.006924 24.006925 24.006924h79.985156c16.014098 0 24.006924-7.992827 24.006924-24.006924z m0-191.998507v-79.985156c0-16.014098-7.992827-24.006924-24.006924-24.006924h-79.985156c-16.014098 0-24.006924 7.992827-24.006925 24.006924v79.985156c0 16.014098 7.992827 24.006924 24.006925 24.006924h79.985156c16.014098 0 24.006924-7.992827 24.006924-24.006924z" p-id="15632" fill="#bfbfbf"></path></svg>