<?xml version="1.0" standalone="no"?><!DOCTYPE svg PUBLIC "-//W3C//DTD SVG 1.1//EN" "http://www.w3.org/Graphics/SVG/1.1/DTD/svg11.dtd"><svg t="1691558485379" class="icon" viewBox="0 0 1024 1024" version="1.1" xmlns="http://www.w3.org/2000/svg" p-id="5761" xmlns:xlink="http://www.w3.org/1999/xlink" width="200" height="200"><path d="M512 56.878545c251.345455 0 455.121455 203.776 455.121455 455.121455S763.345455 967.121455 512 967.121455 56.878545 763.345455 56.878545 512 260.654545 56.878545 512 56.878545z m30.021818 170.682182h-3.165091a26.577455 26.577455 0 0 0-26.251636 23.645091l-0.325818 1.861818-0.279273 1.349819v341.643636a105.332364 105.332364 0 0 0-49.803636-12.939636H391.168a106.728727 106.728727 0 0 0 0 213.317818H462.196364a106.728727 106.728727 0 0 0 106.635636-106.682182c0-2.420364-0.558545-4.701091-0.744727-7.074909h0.744727V305.245091l76.334545 44.125091a28.346182 28.346182 0 0 0 38.81891-10.426182 28.485818 28.485818 0 0 0-10.333091-38.912l-116.456728-67.165091a26.205091 26.205091 0 0 0-15.220363-5.306182zM462.242909 640c27.415273 0 49.757091 22.341818 49.757091 49.803636 0 27.415273-22.341818 49.757091-49.803636 49.757091H391.168c-27.461818 0-49.803636-22.341818-49.803636-49.803636 0-27.415273 22.341818-49.757091 49.803636-49.757091H462.196364z" fill="#333333" p-id="5762"></path></svg>