<?xml version="1.0" standalone="no"?><!DOCTYPE svg PUBLIC "-//W3C//DTD SVG 1.1//EN" "http://www.w3.org/Graphics/SVG/1.1/DTD/svg11.dtd"><svg t="1693448813008" class="icon" viewBox="0 0 1024 1024" version="1.1" xmlns="http://www.w3.org/2000/svg" p-id="8016" xmlns:xlink="http://www.w3.org/1999/xlink" width="200" height="200"><path d="M418.857143 283.428571c8.228571 0 14.971429 4.114286 14.971428 9.142858v438.857142c0 5.028571-6.742857 9.142857-14.971428 9.142858h-52.342857c-8.228571 0-14.971429-4.114286-14.971429-9.142858V292.571429c0-5.028571 6.742857-9.142857 14.971429-9.142858z m238.628571 0c8.228571 0 14.971429 4.114286 14.971429 9.142858v438.857142c0 5.028571-6.742857 9.142857-14.971429 9.142858h-52.342857c-8.228571 0-14.971429-4.114286-14.971428-9.142858V292.571429c0-5.028571 6.742857-9.142857 14.971428-9.142858zM512 0C229.257143 0 0 229.257143 0 512s229.257143 512 512 512 512-229.257143 512-512S794.742857 0 512 0z" p-id="8017" fill="#dbdbdb"></path></svg>